<?xml version="1.0" standalone="no"?>
<!DOCTYPE svg PUBLIC "-//W3C//DTD SVG 20010904//EN"
 "http://www.w3.org/TR/2001/REC-SVG-20010904/DTD/svg10.dtd">
<svg version="1.0" xmlns="http://www.w3.org/2000/svg"
 width="45px" height="30px" viewBox="0 0 1280.000000 613.000000"
 preserveAspectRatio="xMidYMid meet">
<metadata>
Created by potrace 1.15, written by Peter Selinger 2001-2017
</metadata>
<g transform="translate(0.000000,613.000000) scale(0.100000,-0.100000)"
fill="#FF3B48" stroke="none">
<path d="M5539 4840 l-1576 -5 -48 -30 c-92 -57 -131 -182 -86 -280 24 -53 90
-111 142 -125 30 -8 877 -11 3188 -8 2935 3 3152 2 3241 -14 285 -51 478 -145
631 -304 77 -81 113 -132 163 -232 110 -218 173 -573 146 -820 -58 -541 -315
-861 -788 -982 -230 -58 84 -54 -4267 -57 -2549 -3 -4022 0 -4097 6 -294 25
-499 169 -633 446 -152 312 -146 642 15 888 94 142 234 248 410 309 l95 33
3090 3 c2692 2 3101 0 3176 -13 178 -30 272 -88 329 -199 l35 -69 0 -166 c-1
-149 -3 -172 -23 -223 -45 -112 -134 -183 -282 -225 -62 -17 -154 -18 -2110
-18 -1949 0 -2047 -1 -2085 -18 -86 -39 -138 -117 -138 -207 0 -89 55 -171
138 -205 46 -20 4097 -25 4210 -7 457 77 721 380 742 852 12 287 -62 498 -236
670 -131 130 -290 208 -521 257 -81 17 -236 18 -3215 18 -3024 0 -3133 -1
-3210 -19 -314 -73 -560 -230 -744 -473 -75 -99 -166 -289 -196 -405 -80 -320
-35 -691 123 -1004 90 -179 262 -379 410 -477 101 -67 239 -131 357 -164 l100
-28 4100 -3 c2929 -2 4131 0 4210 8 265 26 538 109 729 221 396 232 629 600
712 1124 42 267 3 640 -96 930 -209 606 -676 951 -1375 1015 -112 10 -1617 10
-4766 0z"/>
</g>
</svg>
